<svg xmlns="http://www.w3.org/2000/svg" viewBox="0 0 390 844">
  <rect width="390" height="844" fill="#0a0a0a" />
  <g opacity="0.16" stroke="#f5f5f5">
    <path d="M0 160h390M0 240h390M0 320h390M0 400h390M0 480h390M0 560h390M0 640h390" />
    <path d="M70 0v844M150 0v844M230 0v844M310 0v844" />
  </g>
  <g transform="translate(139 322)">
    <rect width="112" height="112" rx="28" fill="#f5f5f5" />
    <rect x="24" y="24" width="28" height="28" rx="6" fill="#0a0a0a" />
    <rect x="64" y="24" width="24" height="24" rx="5" fill="#0a0a0a" />
    <rect x="24" y="64" width="24" height="24" rx="5" fill="#0a0a0a" />
    <rect x="64" y="64" width="28" height="28" rx="6" fill="#0a0a0a" />
  </g>
  <text x="195" y="484" fill="#f5f5f5" font-family="Menlo, monospace" font-size="18" text-anchor="middle" font-weight="700">QR Pixel</text>
  <text x="195" y="512" fill="#b8b8b8" font-family="Menlo, monospace" font-size="11" text-anchor="middle">Offline-ready QR generator</text>
</svg>
